<svg xmlns="http://www.w3.org/2000/svg" data-name="Layer 1" viewBox="0 0 283.77 144">
  <path fill="#fafafa" d="M36 36v72h211.76V36H36zm207.53 67.76H40.24V40.24h203.29z" class="cls-1"/>
  <path fill="#fafafa" d="M123.79 77.47a2.87 2.87 0 0 1-.7.29h-.07a4.64 4.64 0 0 1-1.71.13 7.16 7.16 0 0 1-3.39-1.29l-2.06 3.14a8.29 8.29 0 0 0 2.43 1.4 10 10 0 0 0 3.34.54 10.11 10.11 0 0 0 2.73-.36 6.61 6.61 0 0 0 2.27-1.12 5.61 5.61 0 0 0 1.56-1.91 6 6 0 0 0 .57-2.69 4.71 4.71 0 0 0-.63-2.59 5.3 5.3 0 0 0-.9-1 5.67 5.67 0 0 0-.68-.5 8.54 8.54 0 0 0-2-.89 28.6 28.6 0 0 1-2-.62 5.81 5.81 0 0 1-1.58-.76 1.64 1.64 0 0 1-.36-2.17 1.88 1.88 0 0 1 .67-.58l.34-.16a3.5 3.5 0 0 1 .55-.17l.4-.07h.49a5.29 5.29 0 0 1 1.59.3 5.88 5.88 0 0 1 1.5.76l.09-.09.06-.09 2.05-3.12a8.1 8.1 0 0 0-2.21-1.08 10.18 10.18 0 0 0-3-.45 9.31 9.31 0 0 0-2.64.38 6.69 6.69 0 0 0-2.26 1.14 5.46 5.46 0 0 0-2.24 4.44 4.38 4.38 0 0 0 .64 2.48 5 5 0 0 0 1.24 1.24 3.47 3.47 0 0 0 .38.29 9.58 9.58 0 0 0 2.09.91c.75.23 1.44.45 2.09.68a6 6 0 0 1 1.6.82 1.55 1.55 0 0 1 .64 1.32 1.52 1.52 0 0 1-.24.86 2 2 0 0 1-.65.59zm-36.27.02h-8.97v-3.76h8.03v-3.77h-8.03v-3.45h8.97v-3.77H74.47v18.52h13.05v-3.77zM100.23 74h3a12.28 12.28 0 0 0 2.72-.28 5.84 5.84 0 0 0 2.17-.92 4.48 4.48 0 0 0 1.44-1.76 6.25 6.25 0 0 0 .52-2.72 6 6 0 0 0-.56-2.73 4.54 4.54 0 0 0-1.52-1.68 6 6 0 0 0-2.23-.9 13.21 13.21 0 0 0-2.72-.27h-6.9v18.52h4.08zm0-7.84h2.09c.38 0 .79 0 1.2.06a3.42 3.42 0 0 1 1.14.3 2.21 2.21 0 0 1 .84.67 1.8 1.8 0 0 1 .32 1.13 2.23 2.23 0 0 1-.24 1.09 1.87 1.87 0 0 1-.66.68 2.7 2.7 0 0 1-.91.35 5.29 5.29 0 0 1-1.06.11h-2.72zm36.78-3.42h4.08v18.51h-4.08zm24.12 14.75h-7.55V62.74h-4.08v18.52h11.63v-3.77zm7.99 1.61a9.21 9.21 0 0 0 3.13 2 11.87 11.87 0 0 0 7.92 0 9.35 9.35 0 0 0 3.14-2 8.85 8.85 0 0 0 2.05-3.1 11.34 11.34 0 0 0 0-8.06 8.85 8.85 0 0 0-2.05-3.07 9.35 9.35 0 0 0-3.14-2 11.87 11.87 0 0 0-7.92 0 9.21 9.21 0 0 0-3.13 2 8.88 8.88 0 0 0-2.06 3.13 11.34 11.34 0 0 0 0 8.06 8.88 8.88 0 0 0 2.06 3.04zm1.8-9.48a5.47 5.47 0 0 1 1.15-1.9 5.31 5.31 0 0 1 1.8-1.24 6.44 6.44 0 0 1 4.68 0 5.31 5.31 0 0 1 1.8 1.24 5.47 5.47 0 0 1 1.15 1.9 7.14 7.14 0 0 1 0 4.77 5.29 5.29 0 0 1-1.15 1.88 5.2 5.2 0 0 1-1.8 1.25 6.44 6.44 0 0 1-4.68 0 5.2 5.2 0 0 1-1.8-1.25 5.29 5.29 0 0 1-1.15-1.88 7.31 7.31 0 0 1 0-4.77zm25.47-1.54h.05l7.78 13.18h5.14V62.74h-3.93v12.87h-.05l-7.58-12.87h-5.34v18.52h3.93V68.08zm18.37-10.45a2.32 2.32 0 1 1-2.32 2.37 2.32 2.32 0 0 1 2.32-2.37zm0 4.13A1.81 1.81 0 1 0 213 60a1.81 1.81 0 0 0 1.76 1.76zm-.08-1.67h-.23v.78h-.37V59h.71c.46 0 .73.14.73.55a.48.48 0 0 1-.48.52l.48.79h-.38zm.1-.27c.24 0 .38-.08.38-.27s-.16-.25-.32-.25h-.4v.52z" class="cls-1"/>
</svg>